<svg xmlns="http://www.w3.org/2000/svg" xmlns:xlink="http://www.w3.org/1999/xlink" width="500" zoomAndPan="magnify" viewBox="0 0 375 374.999991" height="500" preserveAspectRatio="xMidYMid meet" version="1.2"><defs><clipPath id="f9f2bc67de"><path d="M 242 38.671875 L 295 38.671875 L 295 278 L 242 278 Z M 242 38.671875 "/></clipPath><clipPath id="e898b45fa0"><path d="M 0.0742188 212.214844 L 374.929688 212.214844 L 374.929688 336.304688 L 0.0742188 336.304688 Z M 0.0742188 212.214844 "/></clipPath><clipPath id="65c6ab1119"><path d="M 71 38.671875 L 212 38.671875 L 212 223.992188 L 71 223.992188 Z M 71 38.671875 "/></clipPath><clipPath id="7202165b87"><path d="M 27 92 L 133 92 L 133 223.992188 L 27 223.992188 Z M 27 92 "/></clipPath><clipPath id="97d75e8549"><path d="M 1 135 L 133 135 L 133 223.992188 L 1 223.992188 Z M 1 135 "/></clipPath><clipPath id="b2ab5034aa"><path d="M 138.648438 77.324219 L 180.074219 77.324219 L 180.074219 155.734375 L 138.648438 155.734375 Z M 138.648438 77.324219 "/></clipPath></defs><g id="d856dcfeb5"><rect x="0" width="375" y="0" height="374.999991" style="fill:#ffffff;fill-opacity:1;stroke:none;"/><rect x="0" width="375" y="0" height="374.999991" style="fill:#d2bbf2;fill-opacity:1;stroke:none;"/><path style=" stroke:none;fill-rule:nonzero;fill:#256133;fill-opacity:1;" d="M 73.324219 292.65625 C 76.15625 291.753906 98.855469 295.058594 99.382812 294.417969 C 99.613281 294.136719 103.542969 294.308594 107.824219 294.589844 L 107.835938 208.558594 C 79.90625 217.464844 61.625 217.550781 61.625 217.550781 L 61.625 292.371094 C 66.417969 292.796875 71.835938 293.132812 73.324219 292.65625 "/><g clip-rule="nonzero" clip-path="url(#f9f2bc67de)"><path style=" stroke:none;fill-rule:nonzero;fill:#256133;fill-opacity:1;" d="M 275.648438 262.007812 L 294.246094 249.472656 L 294.164062 38.671875 C 277.808594 68.816406 260.335938 93.875 242.589844 114.714844 L 242.730469 277.351562 C 248.566406 276.292969 253.121094 275.410156 253.5625 275.164062 C 254.859375 274.441406 275.648438 262.007812 275.648438 262.007812 "/></g><path style=" stroke:none;fill-rule:nonzero;fill:#256133;fill-opacity:1;" d="M 165.308594 291.535156 L 170.113281 291.1875 L 170.160156 178.878906 C 151.929688 190.589844 134.738281 198.757812 119.636719 204.449219 L 119.601562 295.410156 L 141.507812 293.855469 L 165.308594 291.535156 "/><path style=" stroke:none;fill-rule:nonzero;fill:#256133;fill-opacity:1;" d="M 215.046875 282.179688 C 215.046875 282.179688 222.464844 280.925781 230.789062 279.472656 L 230.789062 127.929688 C 214.363281 145.449219 197.867188 159.546875 181.960938 170.882812 L 181.960938 290.335938 L 190.261719 289.738281 L 215.046875 282.179688 "/><path style=" stroke:none;fill-rule:nonzero;fill:#256133;fill-opacity:1;" d="M 353.960938 211.933594 C 351.738281 200.886719 336.949219 193.242188 313.875 189.328125 L 303.925781 188.226562 L 303.773438 188.464844 C 303.773438 188.464844 365.65625 203.835938 319.519531 233.085938 C 308.820312 240.285156 288.011719 252.402344 255.058594 264.140625 C 255.058594 264.140625 255.023438 264.152344 254.964844 264.179688 L 233.167969 271.289062 C 220.707031 275.007812 206.902344 278.5625 191.679688 281.769531 C 172.550781 285.796875 155.246094 288.378906 139.738281 289.941406 C 134.203125 290.75 115.660156 291.683594 115.660156 291.683594 C 68.070312 293.652344 43.476562 285.65625 43.476562 285.65625 C 40.183594 284.738281 36.496094 283.402344 32.472656 281.328125 C 9.289062 269.398438 44.007812 243.105469 55.109375 235.382812 L 43.421875 241.910156 C 20.304688 255.449219 7.550781 269.445312 9.964844 281.445312 C 13.984375 301.457031 59.027344 310.320312 120.292969 306.046875 C 131.992188 304.765625 144.101562 303.429688 144.101562 303.429688 C 159.433594 301.644531 175.488281 299.121094 191.964844 295.808594 C 207.894531 292.605469 223.175781 288.871094 237.578125 284.769531 L 245.183594 282.421875 C 252.347656 280.871094 259.589844 277.972656 259.589844 277.972656 C 318.9375 258.148438 358.035156 232.1875 353.960938 211.933594 "/><g clip-rule="nonzero" clip-path="url(#e898b45fa0)"><path style=" stroke:none;fill-rule:nonzero;fill:#256133;fill-opacity:1;" d="M 369.585938 212.296875 C 370.089844 213.523438 370.484375 214.773438 370.742188 216.0625 C 376 242.203125 329.023438 274.808594 258.742188 297.675781 C 258.742188 297.675781 248.84375 300.671875 238.363281 303.84375 C 224.84375 307.636719 210.648438 311.066406 195.945312 314.019531 C 182.5 316.722656 169.300781 318.886719 156.480469 320.558594 C 156.480469 320.558594 146.757812 321.632812 135.714844 322.847656 C 67.660156 329 14.03125 320 0.0742188 298.742188 C 5.082031 311.929688 20.183594 326.660156 60.3125 333.394531 C 87.863281 336.589844 114.128906 336.957031 138.628906 335.453125 C 149.113281 334.570312 159.316406 333.707031 159.316406 333.707031 C 189.464844 330.480469 216.460938 324.609375 239.265625 318.078125 C 259.976562 311.632812 259.976562 311.632812 259.976562 311.632812 C 292.472656 300.691406 313.046875 289.757812 317.273438 287.429688 C 382.390625 250.523438 379.410156 225.304688 369.585938 212.296875 "/></g><g clip-rule="nonzero" clip-path="url(#65c6ab1119)"><path style=" stroke:none;fill-rule:nonzero;fill:#256133;fill-opacity:1;" d="M 194.320312 38.671875 L 71.214844 62.257812 C 71.214844 62.257812 135.777344 163.855469 132.242188 223.996094 C 136.292969 151.152344 102.273438 75.09375 102.273438 75.09375 C 102.273438 75.09375 172.070312 60.183594 187.492188 58.257812 C 187.492188 58.257812 205.722656 76.175781 210.527344 122 C 217.652344 81.578125 194.320312 38.671875 194.320312 38.671875 Z M 194.320312 38.671875 "/></g><g clip-rule="nonzero" clip-path="url(#7202165b87)"><path style=" stroke:none;fill-rule:nonzero;fill:#256133;fill-opacity:1;" d="M 132.242188 223.996094 C 130.472656 219.449219 128.152344 214.957031 125.398438 210.527344 C 98.0625 166.453125 27.457031 127.917969 27.457031 127.917969 L 80.472656 92.609375 C 82.425781 96.09375 84.972656 99.984375 87.332031 104.410156 C 76.40625 112.074219 62.1875 122.015625 56.1875 128.535156 C 56.1875 128.535156 99.898438 157.613281 124.566406 206.40625 C 127.425781 212.003906 130.039062 217.875 132.242188 223.996094 Z M 132.242188 223.996094 "/></g><g clip-rule="nonzero" clip-path="url(#97d75e8549)"><path style=" stroke:none;fill-rule:nonzero;fill:#256133;fill-opacity:1;" d="M 132.25 223.984375 C 130.515625 221.984375 128.609375 220.058594 126.597656 218.210938 C 124.886719 216.65625 123.097656 215.113281 121.230469 213.660156 C 80.542969 181.488281 1.050781 169.238281 1.050781 169.238281 L 26.484375 135.585938 C 29 137.027344 33.824219 139.453125 39.195312 142.78125 C 33.871094 150.613281 30.503906 154.710938 28.265625 160.023438 C 28.265625 160.023438 79.253906 172.5625 119.042969 210.058594 C 121.414062 212.257812 123.703125 214.546875 125.929688 216.925781 C 128.101562 219.175781 130.21875 221.539062 132.25 223.984375 Z M 132.25 223.984375 "/></g><g clip-rule="nonzero" clip-path="url(#b2ab5034aa)"><path style=" stroke:none;fill-rule:nonzero;fill:#256133;fill-opacity:1;" d="M 147.484375 97.730469 C 147.484375 94.316406 148.808594 91.703125 151.460938 89.890625 C 153.390625 88.574219 155.367188 87.914062 157.386719 87.914062 L 157.386719 108.476562 C 150.785156 105.679688 147.484375 102.097656 147.484375 97.730469 Z M 161.210938 122.226562 C 168.355469 124.917969 171.925781 128.851562 171.925781 134.027344 C 171.925781 137.257812 170.601562 139.84375 167.957031 141.789062 C 165.894531 143.324219 163.648438 144.128906 161.210938 144.210938 Z M 147.738281 134.921875 C 148.949219 133.988281 149.554688 132.734375 149.554688 131.160156 C 149.554688 128.09375 147.945312 126.5625 144.726562 126.5625 C 143.347656 126.5625 142.117188 127.054688 141.03125 128.046875 C 139.441406 129.492188 138.648438 131.621094 138.648438 134.425781 C 138.648438 138.847656 140.53125 142.394531 144.289062 145.078125 C 147.800781 147.640625 152.164062 148.917969 157.386719 148.917969 L 157.386719 155.734375 L 161.210938 155.734375 L 161.210938 148.609375 C 168.394531 147.703125 173.578125 145.058594 176.753906 140.683594 C 178.964844 137.628906 180.074219 133.992188 180.074219 129.78125 C 180.074219 122.929688 176.082031 117.394531 168.105469 113.183594 C 165.179688 111.738281 162.878906 110.644531 161.210938 109.902344 L 161.210938 87.355469 C 163.523438 87.355469 165.6875 88.019531 167.707031 89.347656 C 169.726562 90.671875 170.734375 92.144531 170.734375 93.761719 C 170.734375 94.21875 170.316406 94.796875 169.480469 95.503906 C 168.644531 96.207031 168.230469 97.097656 168.230469 98.175781 C 168.230469 101.328125 169.648438 102.902344 172.492188 102.902344 C 176.164062 102.902344 178.003906 100.589844 178.003906 95.964844 C 178.003906 92.746094 176.515625 89.957031 173.53125 87.605469 C 170.304688 85.125 166.199219 83.886719 161.210938 83.886719 L 161.210938 77.324219 L 157.386719 77.324219 L 157.386719 83.886719 C 152.832031 84.011719 148.863281 85.664062 145.480469 88.84375 C 141.886719 92.1875 140.089844 96.253906 140.089844 101.042969 C 140.089844 106.246094 142.011719 110.457031 145.855469 113.679688 C 147.738281 115.25 151.582031 117.457031 157.386719 120.304688 L 157.386719 144.523438 C 154.824219 144.644531 152.304688 144.023438 149.828125 142.65625 C 147.222656 141.167969 145.917969 139.445312 145.917969 137.5 C 145.917969 136.710938 146.523438 135.855469 147.738281 134.921875 "/></g></g></svg>